<svg width="28" height="24" viewBox="0 0 28 24" fill="none" xmlns="http://www.w3.org/2000/svg">
<path d="M18.7273 22.2727V19.9091C18.7273 18.6553 18.2292 17.4529 17.3427 16.5664C16.4562 15.6799 15.2538 15.1818 14 15.1818H5.72727C4.47352 15.1818 3.27112 15.6799 2.38459 16.5664C1.49805 17.4529 1 18.6553 1 19.9091V22.2727" stroke="#FCFCFC" stroke-width="2" stroke-linecap="round" stroke-linejoin="round"/>
<path d="M9.86363 10.4545C12.4744 10.4545 14.5909 8.33807 14.5909 5.72727C14.5909 3.11647 12.4744 1 9.86363 1C7.25282 1 5.13635 3.11647 5.13635 5.72727C5.13635 8.33807 7.25282 10.4545 9.86363 10.4545Z" stroke="#FCFCFC" stroke-width="2" stroke-linecap="round" stroke-linejoin="round"/>
<path d="M27 10.4545H19.9091M23.4545 6.90909V14V6.90909Z" stroke="#FCFCFC" stroke-width="2" stroke-linecap="round" stroke-linejoin="round"/>
</svg>
